<mxfile host="app.diagrams.net" agent="Mozilla/5.0 (Macintosh; Intel Mac OS X 10_15_7) AppleWebKit/537.36 (KHTML, like Gecko) Chrome/131.0.0.0 Safari/537.36" version="24.7.4">
  <diagram name="第 1 页" id="DWr2khmTYyyAlgwApB_j">
    <mxGraphModel dx="1434" dy="795" grid="1" gridSize="10" guides="1" tooltips="1" connect="1" arrows="1" fold="1" page="1" pageScale="1" pageWidth="827" pageHeight="1169" math="0" shadow="0">
      <root>
        <mxCell id="0" />
        <mxCell id="1" parent="0" />
        <mxCell id="4PWBB-2T-u3rZhiEAtP--32" value="" style="rounded=1;whiteSpace=wrap;html=1;" vertex="1" parent="1">
          <mxGeometry x="80" y="590" width="640" height="330" as="geometry" />
        </mxCell>
        <mxCell id="4PWBB-2T-u3rZhiEAtP--30" value="" style="rounded=1;whiteSpace=wrap;html=1;fillColor=#f8cecc;strokeColor=#b85450;" vertex="1" parent="1">
          <mxGeometry x="280" y="630" width="390" height="150" as="geometry" />
        </mxCell>
        <mxCell id="4PWBB-2T-u3rZhiEAtP--18" value="" style="rounded=1;whiteSpace=wrap;html=1;" vertex="1" parent="1">
          <mxGeometry x="70" y="170" width="710" height="300" as="geometry" />
        </mxCell>
        <mxCell id="4PWBB-2T-u3rZhiEAtP--15" style="edgeStyle=orthogonalEdgeStyle;rounded=0;orthogonalLoop=1;jettySize=auto;html=1;exitX=1;exitY=0.5;exitDx=0;exitDy=0;entryX=0;entryY=0.5;entryDx=0;entryDy=0;fillColor=#dae8fc;strokeColor=#6c8ebf;" edge="1" parent="1" source="4PWBB-2T-u3rZhiEAtP--1" target="4PWBB-2T-u3rZhiEAtP--2">
          <mxGeometry relative="1" as="geometry" />
        </mxCell>
        <mxCell id="4PWBB-2T-u3rZhiEAtP--1" value="nginx" style="rounded=1;whiteSpace=wrap;html=1;fillColor=#dae8fc;strokeColor=#6c8ebf;" vertex="1" parent="1">
          <mxGeometry x="100" y="200" width="120" height="60" as="geometry" />
        </mxCell>
        <mxCell id="4PWBB-2T-u3rZhiEAtP--11" style="edgeStyle=orthogonalEdgeStyle;rounded=0;orthogonalLoop=1;jettySize=auto;html=1;exitX=1;exitY=0.5;exitDx=0;exitDy=0;entryX=0;entryY=0.5;entryDx=0;entryDy=0;fillColor=#dae8fc;strokeColor=#6c8ebf;" edge="1" parent="1" source="4PWBB-2T-u3rZhiEAtP--2" target="4PWBB-2T-u3rZhiEAtP--3">
          <mxGeometry relative="1" as="geometry" />
        </mxCell>
        <mxCell id="4PWBB-2T-u3rZhiEAtP--17" style="edgeStyle=orthogonalEdgeStyle;rounded=0;orthogonalLoop=1;jettySize=auto;html=1;exitX=0.5;exitY=1;exitDx=0;exitDy=0;entryX=0.5;entryY=0;entryDx=0;entryDy=0;fillColor=#dae8fc;strokeColor=#6c8ebf;" edge="1" parent="1" source="4PWBB-2T-u3rZhiEAtP--2" target="4PWBB-2T-u3rZhiEAtP--16">
          <mxGeometry relative="1" as="geometry" />
        </mxCell>
        <mxCell id="4PWBB-2T-u3rZhiEAtP--2" value="统一会管服务" style="rounded=1;whiteSpace=wrap;html=1;fillColor=#dae8fc;strokeColor=#6c8ebf;" vertex="1" parent="1">
          <mxGeometry x="280" y="200" width="120" height="60" as="geometry" />
        </mxCell>
        <mxCell id="4PWBB-2T-u3rZhiEAtP--7" style="rounded=0;orthogonalLoop=1;jettySize=auto;html=1;exitX=0.25;exitY=1;exitDx=0;exitDy=0;entryX=0.5;entryY=0;entryDx=0;entryDy=0;fillColor=#dae8fc;strokeColor=#6c8ebf;" edge="1" parent="1" source="4PWBB-2T-u3rZhiEAtP--3" target="4PWBB-2T-u3rZhiEAtP--5">
          <mxGeometry relative="1" as="geometry" />
        </mxCell>
        <mxCell id="4PWBB-2T-u3rZhiEAtP--14" style="rounded=0;orthogonalLoop=1;jettySize=auto;html=1;exitX=0.75;exitY=1;exitDx=0;exitDy=0;fillColor=#dae8fc;strokeColor=#6c8ebf;entryX=0.558;entryY=-0.017;entryDx=0;entryDy=0;entryPerimeter=0;" edge="1" parent="1" source="4PWBB-2T-u3rZhiEAtP--3" target="4PWBB-2T-u3rZhiEAtP--8">
          <mxGeometry relative="1" as="geometry">
            <mxPoint x="650" y="260" as="sourcePoint" />
            <mxPoint x="696.1538461538462" y="360" as="targetPoint" />
          </mxGeometry>
        </mxCell>
        <mxCell id="4PWBB-2T-u3rZhiEAtP--3" value="会议服务" style="rounded=1;whiteSpace=wrap;html=1;fillColor=#dae8fc;strokeColor=#6c8ebf;" vertex="1" parent="1">
          <mxGeometry x="540" y="200" width="120" height="60" as="geometry" />
        </mxCell>
        <mxCell id="4PWBB-2T-u3rZhiEAtP--5" value="mysql" style="rounded=1;whiteSpace=wrap;html=1;fillColor=#dae8fc;strokeColor=#6c8ebf;" vertex="1" parent="1">
          <mxGeometry x="460" y="360" width="120" height="60" as="geometry" />
        </mxCell>
        <mxCell id="4PWBB-2T-u3rZhiEAtP--8" value="redis" style="rounded=1;whiteSpace=wrap;html=1;fillColor=#dae8fc;strokeColor=#6c8ebf;" vertex="1" parent="1">
          <mxGeometry x="630" y="360" width="120" height="60" as="geometry" />
        </mxCell>
        <mxCell id="4PWBB-2T-u3rZhiEAtP--16" value="mysql" style="rounded=1;whiteSpace=wrap;html=1;fillColor=#dae8fc;strokeColor=#6c8ebf;" vertex="1" parent="1">
          <mxGeometry x="280" y="360" width="120" height="60" as="geometry" />
        </mxCell>
        <mxCell id="4PWBB-2T-u3rZhiEAtP--21" value="" style="edgeStyle=orthogonalEdgeStyle;rounded=0;orthogonalLoop=1;jettySize=auto;html=1;fillColor=#dae8fc;strokeColor=#6c8ebf;" edge="1" parent="1" source="4PWBB-2T-u3rZhiEAtP--19" target="4PWBB-2T-u3rZhiEAtP--20">
          <mxGeometry relative="1" as="geometry" />
        </mxCell>
        <mxCell id="4PWBB-2T-u3rZhiEAtP--19" value="领效星云" style="rounded=1;whiteSpace=wrap;html=1;fillColor=#dae8fc;strokeColor=#6c8ebf;" vertex="1" parent="1">
          <mxGeometry x="120" y="680" width="120" height="60" as="geometry" />
        </mxCell>
        <mxCell id="4PWBB-2T-u3rZhiEAtP--23" value="" style="edgeStyle=orthogonalEdgeStyle;rounded=0;orthogonalLoop=1;jettySize=auto;html=1;fillColor=#dae8fc;strokeColor=#6c8ebf;" edge="1" parent="1" source="4PWBB-2T-u3rZhiEAtP--20" target="4PWBB-2T-u3rZhiEAtP--22">
          <mxGeometry relative="1" as="geometry" />
        </mxCell>
        <mxCell id="4PWBB-2T-u3rZhiEAtP--25" value="" style="edgeStyle=orthogonalEdgeStyle;rounded=0;orthogonalLoop=1;jettySize=auto;html=1;fillColor=#dae8fc;strokeColor=#6c8ebf;" edge="1" parent="1" source="4PWBB-2T-u3rZhiEAtP--20" target="4PWBB-2T-u3rZhiEAtP--24">
          <mxGeometry relative="1" as="geometry" />
        </mxCell>
        <mxCell id="4PWBB-2T-u3rZhiEAtP--20" value="统一会管服务" style="rounded=1;whiteSpace=wrap;html=1;fillColor=#dae8fc;strokeColor=#6c8ebf;" vertex="1" parent="1">
          <mxGeometry x="320" y="680" width="120" height="60" as="geometry" />
        </mxCell>
        <mxCell id="4PWBB-2T-u3rZhiEAtP--29" style="edgeStyle=orthogonalEdgeStyle;rounded=0;orthogonalLoop=1;jettySize=auto;html=1;exitX=0;exitY=0.75;exitDx=0;exitDy=0;entryX=1;entryY=0.75;entryDx=0;entryDy=0;fillColor=#dae8fc;strokeColor=#6c8ebf;" edge="1" parent="1" source="4PWBB-2T-u3rZhiEAtP--22" target="4PWBB-2T-u3rZhiEAtP--20">
          <mxGeometry relative="1" as="geometry" />
        </mxCell>
        <mxCell id="4PWBB-2T-u3rZhiEAtP--22" value="会议服务" style="rounded=1;whiteSpace=wrap;html=1;fillColor=#dae8fc;strokeColor=#6c8ebf;" vertex="1" parent="1">
          <mxGeometry x="520" y="680" width="120" height="60" as="geometry" />
        </mxCell>
        <mxCell id="4PWBB-2T-u3rZhiEAtP--24" value="腾讯会议" style="rounded=1;whiteSpace=wrap;html=1;fillColor=#dae8fc;strokeColor=#6c8ebf;" vertex="1" parent="1">
          <mxGeometry x="320" y="830" width="120" height="60" as="geometry" />
        </mxCell>
        <mxCell id="4PWBB-2T-u3rZhiEAtP--31" value="被测系统" style="text;html=1;align=center;verticalAlign=middle;whiteSpace=wrap;rounded=0;" vertex="1" parent="1">
          <mxGeometry x="445" y="630" width="60" height="30" as="geometry" />
        </mxCell>
      </root>
    </mxGraphModel>
  </diagram>
</mxfile>
